# xmcd
#
# Track frame offsets: 
#        150
#        13172
#        25922
#        40115
#        53879
#        69166
#        81503
#        93111
#        105786
#        117932
#        132399
#        143731
#        157537
#        171627
#        193319
#        206061
#        216681
#        229725
#        241402
#        255411
#        266937
#        277735
#        291633
#        302015
#        315013
#
# Disc length: 4376 seconds
#
# Revision: 0
# Processed by: cddbd v1.5.2PL0 Copyright (c) Steve Scherf et al.
# Submitted via: ExactAudioCopy v1.0b1
#
DISCID=66111619
DTITLE=Various Artist - History Of Rhythm And Blues 1942-52 [CD2]
DYEAR=2018
DGENRE=R&B
TTITLE0=Arthur Crudup - That's Alright Mama (1946)
TTITLE1=Big Joe Williams - Baby Please Don't Go (1947)
TTITLE2=Johnny Otis - Midnight In The Barrelhouse (1947)
TTITLE3=Jay McShann - Louie's Guitar Boogie (1947)
TTITLE4=Arthur Smith - Guitar Boogie (1948)
TTITLE5=Hank Williams - Movi It On Over (1947)
TTITLE6=Lightnin' Hopkins - Let Me Play With Your Poodle (1947)
TTITLE7=Sonny Boy Williamson I - Shake That Boogie (1947)
TTITLE8=Muddy Waters - I Can't Be Satisfied (1948)
TTITLE9=John Lee Hooker - Boogie Chillen (1948)
TTITLE10=Jazz Gillum - You Got To Run Me Down (1947)
TTITLE11=T-Bone Walker - Call It Stormy Monday (1948)
TTITLE12=Pee Wee Crayton - Blues After Hours (1948)
TTITLE13=Paul Williams - Twister (1948)
TTITLE14=Big Jay McNeely - Deacons Hop (1948)
TTITLE15=Roy Milton - Hucklebuck (1949)
TTITLE16=James Von Streeter - Landslide (1949)
TTITLE17=Louis Jordan - Pettin' and Pokin' 1 (1947)
TTITLE18=Big Three Trio - After Awhile (1947)
TTITLE19=Trumpeteers - Milky White Way (1948)
TTITLE20=Stars Of Harmony - Rough And Rocky Road (1948)
TTITLE21=Dixieaires - Friends Let Me Tell You About Jesus (1949)
TTITLE22=Jubilaires - St Louis Blues (1947)
TTITLE23=Ravens - Write Me A Letter (1948)
TTITLE24=Orioles - It's Too Soon To Know (1948)
EXTD=
EXTT0=
EXTT1=
EXTT2=
EXTT3=
EXTT4=
EXTT5=
EXTT6=
EXTT7=
EXTT8=
EXTT9=
EXTT10=
EXTT11=
EXTT12=
EXTT13=
EXTT14=
EXTT15=
EXTT16=
EXTT17=
EXTT18=
EXTT19=
EXTT20=
EXTT21=
EXTT22=
EXTT23=
EXTT24=
PLAYORDER=
